<svg xmlns="http://www.w3.org/2000/svg"><defs><font id="linea-basic-10" horiz-adv-x="512"><font-face font-family="linea-basic-10" units-per-em="512" ascent="480" descent="-32"/><glyph unicode="a" d="M256 513c-69 0-133-27-182-75C26 389-1 325-1 256S26 123 74 75C123 26 187 0 256 0c142 0 257 115 257 256 0 69-27 133-75 182-49 48-113 75-182 75zm0-498V7v9c-64 0-125 25-170 70-46 46-71 106-71 170 0 65 25 125 71 170 45 46 106 71 170 71s125-25 170-71c46-45 71-106 71-170 0-133-105-241-241-241zm0 425c-49 0-95-19-130-54s-54-81-54-130h16c0 45 17 87 49 119s74 49 119 49 87-17 119-49 49-74 49-119h16c0 49-19 95-54 130s-81 54-130 54zm-10-186-48 55-12-10 49-56c-2-4-3-7-3-11 0-7 3-13 7-17 5-5 11-7 17-7s12 3 17 7c9 10 9 25 0 34-7 7-18 8-27 5zm16-28c-3-3-9-3-12 0-1 2-2 4-2 6s1 4 2 6c2 1 4 2 6 2s4-1 6-2c3-3 3-8 0-12z"/><glyph unicode="b" d="M472 256c0 119-97 216-216 216S40 375 40 256c0-85 50-160 122-195l-48-47 12-12 52 53c24-10 50-15 78-15s54 5 78 15l52-53 12 12-48 47c72 35 122 110 122 195zM256 56C146 56 56 146 56 256s90 200 200 200 200-90 200-200S366 56 256 56zm8 296h-16V251l68-34 8 14-60 30zM-1 451l20-99 117 117-99 20zm105 8-75-75-12 61 26 26zm272 10 117-117 20 99-38 38zm107-85-75 75 61 12 26-26z"/><glyph unicode="c" d="m154 120-80 24-10-6-24-80 16-4 18 61C106 45 177 0 256 0c80 0 151 46 183 117l26-64 14 6-32 80-9 5-80-24 4-16 62 19C396 61 334 19 264 16v352h64v16h-64v17c27 4 48 27 48 55 0 31-25 56-56 56s-56-25-56-56c0-28 21-51 48-55v-17h-64v-16h64V16c-70 3-132 45-160 107l62-19zm62 336c0 22 18 40 40 40s40-18 40-40-18-40-40-40-40 18-40 40z"/><glyph unicode="d" d="m334 190-70 69v157h-16V253l74-75zM32 264h32v-16H32zm416 0h32v-16h-32zM248 64h16V32h-16zm0 416h16v-32h-16zm181-40h67v16h-88l-8-8v-88h16v71l36-36c29-41 44-89 44-139 0-132-108-240-240-240S16 124 16 256s108 240 240 240v16C115 512 0 397 0 256S115 0 256 0s256 115 256 256c0 54-16 105-48 149z"/><glyph unicode="e" d="M480 192h-1l-48 320H81L33 192h-1V0h448zM95 496h322l46-304H336v-8c0-44-36-80-80-80s-80 36-80 80v8H49zM464 16H48v160h112c4-49 46-88 96-88s92 39 96 88h112z"/><glyph unicode="f" d="M480 192h-1l-48 320H81L33 192h-1V0h448zM95 496h322l46-304H336v-8c0-44-36-80-80-80s-80 36-80 80v8H49zM464 16H48v160h112c4-49 46-88 96-88s92 39 96 88h112zM96 272h320v-16H96zm16 80h288v-16H112zm16 80h256v-16H128z"/><glyph unicode="g" d="M256 0c68 0 133 27 181 75s75 113 75 181-27 133-75 181-113 75-181 75-133-27-181-75S0 324 0 256 27 123 75 75 188 0 256 0zm170 426c45-46 70-106 70-170 0-61-23-119-65-164L92 431c45 42 103 65 164 65 64 0 124-25 170-70zm-345-6L420 81c-45-42-103-65-164-65-64 0-124 25-170 70-45 46-70 106-70 170 0 61 23 119 65 164z"/><glyph unicode="h" d="M480 192h32v112h-32v48H0V144h480zm16 96v-80h-16v80zm-32-128H16v176h448zm-16 160H32V176h416zm-16-128H48v112h384zm-208 68v-48l67 29-6 14-45-19v48l-67-29 6-14z"/><glyph unicode="i" d="M480 192h32v112h-32v48H0V144h480zm16 96v-80h-16v80zm-32-128H16v176h448zM118 320H32V176h122zm-70-16h58l28-112H48z"/><glyph unicode="j" d="M480 192h32v112h-32v48H0V144h480zm16 96v-80h-16v80zm-32-128H16v176h448zm-16 160H32V176h416zm-16-128H48v112h384z"/><glyph unicode="k" d="M480 192h32v112h-32v48H0V144h480zm16 96v-80h-16v80zm-32-128H16v176h448zM238 320H32V176h242zM48 304h178l28-112H48z"/><glyph unicode="l" d="M313 508 129 220l7-12h102L184 10l14-7 208 288-6 13H297l31 199zm-33-211 8-9h96L211 48l45 166-8 10h-97l155 244z"/><glyph unicode="m" d="M432 512H48V0h384zM64 496h48V16H64zM416 16H128v480h288zM160 400h224v-16H160zm0-48h224v-16H160z"/><glyph unicode="n" d="M384 512H0V0h384zM16 496h48V16H16zM368 16H80v480h288zM112 400h224v-16H112zm0-48h224v-16H112zM512 86v410h-80v-32h-32v-88h16v72h16V86l40-80zm-64 394h48V90l-24-48-24 48z"/><glyph unicode="o" d="M384 512H0V0h384zM16 496h48V16H16zM368 16H80v480h288zM112 400h224v-16H112zm0-48h224v-16H112zM512 78v434h-80V78l40-80zm-16 418v-64h-48v64zm-48-80h48V82l-24-48-24 48z"/><glyph unicode="p" d="m136-3 120 120L376-3v515H136zm16 499h208V35L256 139 152 35z"/><glyph unicode="q" d="M0 0h512v512H0zm16 496h480V16H16zm136-48h-16v-72H64v-16h72v-72h16v72h72v16h-72zm136-72h160v-16H288zm-86-162-58-59-58 59-12-12 59-58-59-58 12-12 58 59 58-59 12 12-59 58 59 58zm86-38h160v-16H288zm0-48h160v-16H288z"/><glyph unicode="r" d="M424 472h-64v-32H152v32H88v-32H0V40h512v400h-88zm-48-16h32v-48h-32zm-272 0h32v-48h-32zM16 56v304h480V56zm480 368v-48H16v48h72v-32h64v32h208v-32h64v32zM72 232h96v96H72zm16 80h64v-64H88zM72 88h96v96H72zm16 80h64v-64H88zm256 64h96v96h-96zm16 80h64v-64h-64zM344 88h96v96h-96zm16 80h64v-64h-64zm-152 64h96v96h-96zm16 80h64v-64h-64zM208 88h96v96h-96zm16 80h64v-64h-64z"/><glyph unicode="s" d="m254 421-26 54L-2 356 148 29l108 50 100-50 159 335-231 119zM156 51 18 348l202 105 25-50-128-255 120-60zm337 305L348 51 139 156l153 305zM273 172l103 47-9 113-103-47zm80 136 7-79-73-33-7 79zm-56 136 14-8-8-16-14 8zM49 324l-8 16 14 8 8-16zM343 68l-14 8 8 16 14-8z"/><glyph unicode="t" d="m256 79 100-50 159 335-231 119-30-62-26 54L-2 356 148 29zm36 382 201-105L348 51 139 156zm-72-8 25-50-128-255 120-60-81-37L18 348zm77-9 14-8-8-16-14 8zM49 324l-8 16 14 8 8-16zM343 68l-14 8 8 16 14-8zm-62 120 2-4h7c22 0 95 3 117 44 12 23 11 55-11 67-14 8-34 9-48 4 0 4-1 7-2 11-4 10-12 19-22 25-7 4-14 5-22 5-19 0-37-10-45-24-25-46 22-125 24-128zm-10 120c5 10 18 16 31 16 5 0 10-1 14-3 7-4 12-10 15-17 2-7 1-14-2-20l14-8c5 9 18 10 23 10 8 0 16-2 22-5 15-8 12-32 5-45-18-33-85-36-100-36-14 23-38 79-22 108z"/><glyph unicode="u" d="M512 376H335c-3 19-16 64-79 64s-76-45-79-64H0V72h512zm-256 48c49 0 60-33 63-48H193c2 15 14 48 63 48zm240-64v-80H16v80zm-272-96h64v-32h-64zM16 88v176h192v-48h96v48h192V88z"/><glyph unicode="v" d="M256 0c62 0 120 24 164 68s68 102 68 164-24 120-68 164c-42 42-97 66-156 68v32h40v16h-96v-16h40v-32c-59-2-114-26-156-68-44-44-68-102-68-164S48 112 92 68 194 0 256 0zM103 385c39 39 90 61 145 63v-24h16v24c55-2 106-24 145-63s61-90 63-145h-24v-16h24c-2-55-24-106-63-145s-90-61-145-63v24h-16V16c-55 2-106 24-145 63s-61 90-63 145h24v16H40c2 55 24 106 63 145zm19-8 23-22-12-12-22 23zm257-256 22-23-11-11-23 22zm11 256 11-11-22-23-12 12zM134 121l11-12-23-22-11 11zm122 79c18 0 32 14 32 32 0 15-10 27-24 31v81h-16v-81c-14-4-24-16-24-31 0-18 14-32 32-32zm0 48c9 0 16-7 16-16s-7-16-16-16-16 7-16 16 7 16 16 16z"/><glyph unicode="w" d="M136 152V48h-32V0h304v48h-24v104c0 25-41 55-109 100 68 45 109 75 109 100v112h24v48H104v-48h32V352c0-25 41-55 109-100-68-45-109-75-109-100zM392 16H120v16h272zM120 496h272v-16H120zm32-144v112h216V352c0-19-59-58-108-90-49 32-108 71-108 90zm108-110c49-32 108-71 108-90V48H152v104c0 19 59 58 108 90z"/><glyph unicode="x" d="M256 512c-68 0-133-27-181-75S0 324 0 256 27 123 75 75 188 0 256 0s133 27 181 75 75 113 75 181-27 133-75 181-113 75-181 75zM426 86c-46-45-106-70-170-70S132 41 86 86c-45 46-70 106-70 170s25 124 70 170c46 45 106 70 170 70s124-25 170-70c45-46 70-106 70-170s-25-124-70-170zM264 416h-16V253l74-75 12 12-70 69zM32 264h32v-16H32zm416 0h32v-16h-32zM248 64h16V32h-16zm0 416h16v-32h-16z"/><glyph unicode="y" d="m334 190-70 69v157h-16V253l74-75zM32 264h32v-16H32zm416 0h32v-16h-32zM248 64h16V32h-16zm0 416h16v-32h-16zm8 32v-16c132 0 240-108 240-240S388 16 256 16 16 124 16 256c0 50 15 98 44 139l36 36v-71h16v88l-8 8H16v-16h67l-35-34v-1C16 361 0 310 0 256 0 115 115 0 256 0s256 115 256 256-115 256-256 256z"/><glyph unicode="z" d="M448 248c-4 89-81 160-175 160-84 0-158-55-175-128h-7c-50 0-91-39-91-88s39-88 88-88h352c40 0 72 32 72 72 0 38-28 68-64 72zm-8-128H88c-40 0-72 32-72 72s33 72 75 72h20l1 6c13 70 82 122 161 122 87 0 159-68 159-152v-8h8c31 0 56-25 56-56s-25-56-56-56z"/><glyph unicode="A" d="M396 335c-12 0-24-2-36-6 7 16 11 33 11 50 0 64-51 116-115 116s-116-52-116-115c0-18 5-35 12-51-12 4-24 6-36 6C52 335 0 283 0 219s52-116 116-116c45 0 92 20 116 55 0-40-10-142-48-142V0h144v16c-38 0-48 102-48 142 24-35 71-55 116-55 64 0 116 52 116 116s-52 116-116 116zm0-216c-56 0-116 34-116 89h-16v-48c0-13 1-106 33-144h-82c32 38 33 131 33 144v48h-16c0-55-60-89-116-89-55 0-100 45-100 100s45 100 100 100c19 0 38-5 54-16l10 12c-15 18-24 41-24 64 0 55 45 100 100 100s100-45 100-100c0-23-9-46-24-64l10-12c16 11 35 16 54 16 55 0 100-45 100-100s-45-100-100-100z"/><glyph unicode="B" d="M256-2c63 0 121 24 166 68 44 45 68 103 68 166s-24 121-68 166c-33 32-74 54-118 63v3c0 26-22 48-48 48s-48-22-48-48v-3c-44-9-85-31-118-63-44-45-68-103-68-166S46 111 90 66C135 22 193-2 256-2zm0 498c18 0 32-14 32-32-11 2-21 2-32 2s-21 0-32-2c0 18 14 32 32 32zM102 386c39 40 91 62 146 64v-34h16v34c55-2 107-24 146-64 40-39 62-91 64-146h-34v-16h34c-2-55-24-107-64-146-39-40-91-62-146-64v34h-16V14c-55 2-107 24-146 64-40 39-62 91-64 146h34v16H38c2 55 24 107 64 146zm197-201 4 4 64 152-10 10-152-64-4-4-56-144 10-10zm-6 21-71 71 123 52zm-82 60 71-71-116-45z"/><glyph unicode="C" d="M392 296v80c71 5 72 79 72 80v8h-72v48H120v-48H48v-8c0-1 1-75 72-80v-80c0-41 52-70 128-72V16h-88V0h192v16h-88v208c76 2 128 31 128 72zm55 152c-2-16-12-52-55-56v56zm-382 0h55v-56c-43 4-53 40-55 56zm71-152v200h240V296c0-28-41-56-120-56s-120 28-120 56z"/><glyph unicode="D" d="m264-5 194 261-194 261L70 256zm174 261L264 21 90 256l174 235z"/><glyph unicode="E" d="M0 96h248V16h-72V0h160v16h-72v80h248v344H0zm496 16H16v48h480zm0 312V176H16v248z"/><glyph unicode="F" d="M248 304V67l-50 51-12-13 64-65h12l64 65-12 12-50-50v237zm-56-120H16v272h480V184H320v-16h192v304H0V168h192z"/><glyph unicode="G" d="M256 0c68 0 133 27 181 75s75 113 75 181-27 133-75 181-113 75-181 75-133-27-181-75S0 324 0 256 27 123 75 75 188 0 256 0zM86 426c46 45 106 70 170 70s124-25 170-70c45-46 70-106 70-170s-25-124-70-170c-46-45-106-70-170-70S132 41 86 86c-45 46-70 106-70 170s25 124 70 170zm162-50h16V200h-16zm0-208h16v-32h-16z"/><glyph unicode="H" d="M256 128c162 0 251 118 254 123l4 5-4 5c-3 5-92 123-254 123S5 266 2 261l-4-5 4-5c3-5 92-123 254-123zm0 240c136 0 219-90 238-112-19-22-102-112-238-112S37 234 18 256c19 22 102 112 238 112zm0-176c35 0 64 29 64 64s-29 64-64 64-64-29-64-64 29-64 64-64zm0 112c26 0 48-22 48-48s-22-48-48-48-48 22-48 48 22 48 48 48z"/><glyph unicode="I" d="M139 150 66 78l12-12 77 78c30-10 63-16 101-16 162 0 251 118 254 123l4 5-4 5c-2 3-49 66-137 101l73 72-12 12-77-78c-30 10-63 16-101 16C94 384 5 266 2 261l-4-5 4-5c2-3 49-66 137-101zm355 106c-19-22-102-112-238-112-32 0-61 5-88 13l49 49c11-9 24-14 39-14 35 0 64 29 64 64 0 15-5 28-14 39l54 54c75-27 121-77 134-93zm-286 0c0 26 22 48 48 48 10 0 20-3 28-9l-67-67c-6 8-9 18-9 28zm96 0c0-26-22-48-48-48-10 0-20 3-28 9l67 67c6-8 9-18 9-28zm-48 112c32 0 61-5 88-13l-49-49c-11 9-24 14-39 14-35 0-64-29-64-64 0-15 5-28 14-39l-54-54c-75 27-121 77-134 93 19 22 102 112 238 112z"/><glyph unicode="J" d="M312 512c-110 0-200-90-200-200 0-52 20-100 53-136L76 87l-62 63-12-12 63-62L2 14 14 2l62 63 62-63 12 12-63 62 89 89c36-33 84-53 136-53 110 0 200 90 200 200s-90 200-200 200zm0-384c-101 0-184 83-184 184s83 184 184 184 184-83 184-184-83-184-184-184z"/><glyph unicode="K" d="M104 472v40H88V0h16v264h333l-52 104 52 104zm307-192H104v176h307l-44-88z"/><glyph unicode="L" d="M264 432v40H64v40H48V0h16v264h136v-40h269l-52 104 52 104zm-34 0 18 15v-15zM64 280v176h170l-34-28V280zm379-40H216v176h227l-44-88z"/><glyph unicode="M" d="M400 512H0V0h512v411L411 512zm-16-16V360H128v136zM64 16v240h384V16zm432 0h-32v256H48V16H16v480h96V344h288v152h5l91-91zM112 208h288v-16H112zm0-64h288v-16H112zm0-64h288V64H112zm240 400h-56V376h56zm-16-88h-24v72h24z"/><glyph unicode="N" d="M179 440H0V72h512v304H243zM496 88H16v336h157l64-64h259z"/><glyph unicode="O" d="M456 344H217l-57 56H0V72h456zM440 88H16v296h138l57-56h229zM216 464H56v-56h16v40h138l57-56h229V152h-32v-16h48v272H273z"/><glyph unicode="P" d="m425 350 50 50-75 75-50-50-38 13v74H200v-74l-38-13-50 50-75-75 50-50-13-38H0V200h74l13-38-50-50 75-75 50 50 38-13V0h112v74l38 13 50-50 75 75-50 50 13 38h74v112h-74zm71-134h-70l-19-58 46-46-53-53-46 46-58-19V16h-80v70l-58 19-46-46-53 53 46 46-19 58H16v80h70l19 58-46 46 53 53 46-46 58 19v70h80v-70l58-19 46 46 53-53-46-46 19-58h70zm-240 96c-31 0-56-25-56-56s25-56 56-56 56 25 56 56-25 56-56 56zm0-96c-22 0-40 18-40 40s18 40 40 40 40-18 40-40-18-40-40-40z"/><glyph unicode="Q" d="M312 336c0 31-25 56-56 56s-56-25-56-56 25-56 56-56 56 25 56 56zm-96 0c0 22 18 40 40 40s40-18 40-40-18-40-40-40-40 18-40 40zM256-4l6 7c7 8 171 201 170 327 0 100-79 182-176 182S80 430 80 330C80 204 243 11 250 3zm0 500c88 0 160-74 160-166 0-107-130-273-160-309C226 57 96 223 96 330c0 92 72 166 160 166z"/><glyph unicode="R" d="M296 360c0 22-18 40-40 40s-40-18-40-40 18-40 40-40 40 18 40 40zm-64 0c0 13 11 24 24 24s24-11 24-24-11-24-24-24-24 11-24 24zm24-237 6 8c4 5 106 131 106 213 0 66-51 120-112 120-62 0-112-54-112-120 0-82 101-208 106-213zm0 325c53 0 96-47 96-104 0-65-74-166-96-195-22 29-96 130-96 195 0 57 43 104 96 104zm88-224v-16h67l79-144H22l79 144h67v16H91L-6 48h524l-97 176z"/><glyph unicode="S" d="M464 288c0-111-97-208-208-208-74 0-97 29-98 29l-12-10c1-1 25-33 102-35V16h-72V0h160v16h-72v48c116 5 216 107 216 224 0 119-105 224-224 224v-16c111 0 208-97 208-208zM256 120c93 0 168 75 168 168s-75 168-168 168S88 381 88 288s75-168 168-168zm0 320c84 0 152-68 152-152s-68-152-152-152-152 68-152 152 68 152 152 152z"/><glyph unicode="T" d="M264 456v56h-16v-56c-104-4-188-88-192-192H0v-16h56c4-104 88-188 192-192V0h16v56c104 4 188 88 192 192h56v16h-56c-4 104-88 188-192 192zm0-384v56h-16V72c-95 4-172 81-176 176h56v16H72c4 95 81 172 176 176v-56h16v56c95-4 172-81 176-176h-56v-16h56c-4-95-81-172-176-176z"/><glyph unicode="U" d="M328 211 187 352l96 96-42 42-6-3c0-1-20-15-45-15-18 0-34 8-48 22l-6 5L-3 360l99-99 80 80 141-141-24-24L456 13l59 59-163 163zM19 360l117 117c16-14 34-21 54-21 22 0 40 9 49 14l22-22L96 283zM456 35 315 176l37 37L493 72z"/><glyph unicode="V" d="M424 296h-8v40c0 1-2 136-160 136S96 337 96 336v-40h-8c-49 0-88-39-88-88s39-88 88-88h24v216c0 5 2 120 144 120s144-115 144-120V93L296 52v28h-80V32h74l126 51v37h8c49 0 88 39 88 88s-39 88-88 88zM96 136h-8c-40 0-72 32-72 72s32 72 72 72h8zm136-88v16h48V48zm192 88h-8v144h8c40 0 72-32 72-72s-32-72-72-72z"/><glyph unicode="W" d="M384 480c-59 0-109-33-128-79-19 46-69 79-128 79C48 480 0 411 0 344c0-69 43-142 127-218 62-56 124-93 125-93l4-2 4 2c1 0 63 37 125 93 84 76 127 149 127 218 0 67-48 136-128 136zM256 49C224 69 16 201 16 344c0 59 42 120 112 120 58 0 120-40 120-104h16c0 64 62 104 120 104 70 0 112-61 112-120 0-143-208-275-240-295z"/><glyph unicode="X" d="M256 401c-19 46-69 79-128 79C48 480 0 411 0 344c0-69 43-142 127-218 62-56 124-93 125-93l4-2 4 2c1 0 63 37 125 93 84 76 127 149 127 218 0 67-48 136-128 136-59 0-109-33-128-79zM16 344c0 59 42 120 112 120 58 0 120-40 120-104v-4l44-37-63-63 48-48-48-48 48-48-47-46C166 109 16 223 16 344zm480 0c0-143-208-275-240-295-3 2-7 5-12 8l55 55-48 48 48 48-48 48 65 65-52 43c3 62 63 100 120 100 70 0 112-61 112-120z"/><glyph unicode="Y" d="M264 0v56c56 2 107 28 142 67l61-49 10 12-61 50c25 33 40 75 40 120 0 44-14 84-38 117l59 45-10 12-59-45c-35 42-86 69-144 71v56h-16v-56c-56-2-107-28-142-67l-61 49-10-12 61-50c-25-33-40-75-40-120 0-44 14-84 38-117L35 94l10-12 59 45c35-42 86-69 144-71V0zm-64 256c0 31 25 56 56 56s56-25 56-56-25-56-56-56-56 25-56 56zm64-184v112c16 2 31 9 42 20l87-70c-32-36-78-60-129-62zm176 184c0-41-14-79-37-110l-87 70c8 12 12 25 12 40 0 14-4 28-12 39l89 68c22-30 35-67 35-107zm-44 120-90-68c-11 10-26 18-42 20v112c53-2 99-27 132-64zm-148 64V328c-16-2-31-9-42-20l-87 70c32 36 78 60 129 62zM72 256c0 41 14 79 37 110l87-70c-8-12-12-25-12-40 0-14 4-28 12-39l-89-68c-22 30-35 67-35 107zm44-120 90 68c11-10 26-18 42-20V72c-53 2-99 27-132 64z"/><glyph unicode="Z" d="M-3 240h83V0h112v128h112V0h112v240h99L256 499zm403 16V16h-80v128H176V16H96v240H35l221 221 221-221z"/><glyph unicode="0" d="M256 0c68 0 133 27 181 75s75 113 75 181-27 133-75 181-113 75-181 75-133-27-181-75S0 324 0 256 27 123 75 75 188 0 256 0zM86 426c46 45 106 70 170 70s124-25 170-70c45-46 70-106 70-170s-25-124-70-170c-46-45-106-70-170-70S132 41 86 86c-45 46-70 106-70 170s25 124 70 170zm162-114h16V136h-16zm0 64h16v-32h-16z"/><glyph unicode="1" d="M120 0h272v512H120zm16 16v200h240V16zm0 216v232h240V232zm240 264v-16H136v16zM252 200c-46 0-84-38-84-84s38-84 84-84 84 38 84 84-38 84-84 84zm0-152c-37 0-68 31-68 68s31 68 68 68 68-31 68-68-31-68-68-68zm0 96c-15 0-28-13-28-28s13-28 28-28 28 13 28 28-13 28-28 28zm0-40c-7 0-12 5-12 12s5 12 12 12 12-5 12-12-5-12-12-12z"/><glyph unicode="2" d="M400 304H264v32h112v72h-80v16h-16v-32h80v-40H248v-48H112C50 304 0 254 0 192S50 80 112 80c37 0 71 18 92 48h104c21-30 55-48 92-48 62 0 112 50 112 112s-50 112-112 112zm0-208c-33 0-63 17-81 44l-2 4H195l-2-4c-18-27-48-44-81-44-53 0-96 43-96 96s43 96 96 96h288c53 0 96-43 96-96s-43-96-96-96zM120 256h-16v-56H48v-16h56v-56h16v56h56v16h-56zm280 0c-35 0-64-29-64-64s29-64 64-64 64 29 64 64-29 64-64 64zm47-56h-39v39c20-3 36-19 39-39zm-55 39v-39h-39c3 20 19 36 39 39zm-39-55h39v-39c-20 3-36 19-39 39zm55-39v39h39c-3-20-19-36-39-39z"/><glyph unicode="3" d="M408 360c-57 0-104-47-104-104s47-104 104-104 104 47 104 104-47 104-104 104zm0-192c-49 0-88 39-88 88s39 88 88 88 88-39 88-88-39-88-88-88zM0 264v-16h40v-72h16v72h48v-40h16v40h184v16z"/><glyph unicode="4" d="M64 392h112v72H96v16H80v-32h80v-40H48v-64H0V88h512v256H64zm432-288H16v224h480zM32 288h32v-16H32zm48 0h32v-16H80zm48 0h32v-16h-32zm48 0h32v-16h-32zm48 0h32v-16h-32zm48 0h32v-16h-32zm48 0h32v-16h-32zm48 0h32v-16h-32zm48 0h32v-16h-32zM32 160h32v-16H32zm48 0h32v-16H80zm48 0h208v-16H128zm272 0h32v-16h-32zm48 0h32v-16h-32zm-96 0h32v-16h-32zM64 224h32v-16H64zm48 0h32v-16h-32zm48 0h32v-16h-32zm48 0h32v-16h-32zm48 0h32v-16h-32zm48 0h32v-16h-32zm48 0h32v-16h-32zm48 0h32v-16h-32zm48 0h32v-16h-32z"/><glyph unicode="5" d="M456 424H56V152H0V88h512v64h-56zM72 408h368V152H72zm424-272v-32H16v32zM240 392h32v-16h-32z"/><glyph unicode="6" d="M256 512C115 512 0 397 0 256S115 0 256 0s256 115 256 256-115 256-256 256zm233-200H371c-13 26-33 46-59 59v118c87-21 156-90 177-177zm7-56c0-14-1-27-3-40H378c4 13 6 26 6 40s-2 27-6 40h115c2-13 3-26 3-40zM256 144c-62 0-112 50-112 112s50 112 112 112 112-50 112-112-50-112-112-112zm-122 72H19c-2 13-3 26-3 40s1 27 3 40h115c-4-13-6-26-6-40s2-27 6-40zm162 277V378c-13 4-26 6-40 6s-27-2-40-6v115c13 2 26 3 40 3s27-1 40-3zm-96-4V371c-26-13-46-33-59-59H23c21 87 90 156 177 177zM23 200h118c13-26 33-46 59-59V23C113 44 44 113 23 200zM216 19v115c13-4 26-6 40-6s27 2 40 6V19c-13-2-26-3-40-3s-27 1-40 3zm96 4v118c26 13 46 33 59 59h118c-21-87-90-156-177-177z"/><glyph unicode="7" d="M320 0v48h16v48h16v92c50 33 80 88 80 148 0 97-79 176-176 176S80 433 80 336c0-60 31-116 80-148V96h16V48h16V0zm-16 16h-96v32h96zM172 199c-47 29-76 81-76 137 0 88 72 160 160 160s160-72 160-160c0-56-28-107-76-136l-4-3v-37h-39l23 151-16 2-1-6-22-16-25 24-25-24-22 16-1 6-16-2 23-151h-39v36zm59-39-19 125 21-16 23 24 23-24 21 16-19-125zm-55-16h160v-32H176zm16-48h128V64H192z"/><glyph unicode="8" d="M424 512c-19 0-38-6-53-18L266 390c-17-18-26-40-26-62 0-12 2-24 7-35 1-1 1-2 2-3l14 7s-1 1-1 2l-7-3 7 3c-4 9-6 19-6 29 0 18 8 36 22 50l103 104c13 9 27 14 43 14 19 0 37-7 51-21 13-14 21-32 21-51 0-15-5-30-14-43l-96-95v-1c-14-18-35-29-58-29-10 0-20 2-29 6l-6-15c11-5 23-7 35-7 28 0 53 13 70 35l96 95v1c12 16 18 34 18 53 0 24-9 46-26 62-17 17-39 26-62 26zM250 213c4-9 6-19 6-29 0-16-5-30-14-43l-96-95v-1c-14-19-35-29-58-29-19 0-37 7-51 21-13 14-21 32-21 51 0 18 8 36 22 50l103 104c13 9 27 14 43 14 10 0 20-2 29-6l6 15c-11 5-23 7-35 7-19 0-37-6-53-18L26 149C9 132 0 110 0 88c0-24 9-46 26-62C43 9 65 0 88 0c28 0 53 13 70 35l96 95v1c12 16 18 34 18 53 0 12-2 24-7 35zm84 109L190 178l-12 12 144 144z"/><glyph unicode="9" d="M392 376c0 75-61 136-136 136s-136-61-136-136V256H56V0h400v256h-64zm-256 0c0 66 54 120 120 120s120-54 120-120V256H136zM440 16H72v224h368zM248 97V72h16v25c18 4 32 20 32 39 0 22-18 40-40 40s-40-18-40-40c0-19 14-35 32-39zm8 63c13 0 24-11 24-24s-11-24-24-24-24 11-24 24 11 24 24 24z"/><glyph unicode="!" d="M136 376c0 66 54 120 120 120s120-54 120-120v-24h16v24c0 75-61 136-136 136s-136-61-136-136V256H56V0h400v256H136zM440 16H72v224h368zM248 97V72h16v25c18 4 32 20 32 39 0 22-18 40-40 40s-40-18-40-40c0-19 14-35 32-39zm8 63c13 0 24-11 24-24s-11-24-24-24-24 11-24 24 11 24 24 24z"/><glyph unicode="&quot;" d="M256 512c-75 0-136-61-136-136V136C120 61 181 0 256 0s136 61 136 136v240c0 75-61 136-136 136zm120-376c0-66-54-120-120-120S136 70 136 136v240c0 66 54 120 120 120s120-54 120-120zM248 432h16v-64h-16z"/><glyph unicode="#" d="M168 176c43 0 83 17 113 44l36-36-24-24L456-3l59 59-163 163-24-24-36 36c27 30 44 70 44 113 0 93-75 168-168 168S0 437 0 344s75-168 168-168zM493 56l-37-37-141 141 37 37zM168 496c84 0 152-68 152-152s-68-152-152-152S16 260 16 344s68 152 152 152z"/><glyph unicode="$" d="M96 352h144v-16H96zm232-157-36 36c27 30 44 70 44 113 0 93-75 168-168 168S0 437 0 344s75-168 168-168c43 0 83 17 113 44l36-36-24-24L456-3l59 59-163 163zM16 344c0 84 68 152 152 152s152-68 152-152-68-152-152-152S16 260 16 344zM456 19 315 160l37 37L493 56z"/><glyph unicode="%" d="M176 416h-16v-64H96v-16h64v-64h16v64h64v16h-64zm152-221-36 36c27 30 44 70 44 113 0 93-75 168-168 168S0 437 0 344s75-168 168-168c43 0 83 17 113 44l36-36-24-24L456-3l59 59-163 163zM16 344c0 84 68 152 152 152s152-68 152-152-68-152-152-152S16 260 16 344zM456 19 315 160l37 37L493 56z"/><glyph unicode="&amp;" d="M512 416H0V104h512zm-35-16L256 258 35 400zM16 120v273l240-155 240 155V120z"/><glyph unicode="'" d="M432 376H0V104h432zm-38-16L216 257 37 360zM16 120v234l200-116 200 116V120zm56 264h16v48h408V192h-56v-16h72v272H72z"/><glyph unicode="(" d="M432 512H80V343L0 309V0h512v309l-80 34zm-16-16V258L256 158 96 258v238zM80 268l-55 35 55 23zM16 16v274l240-151 240 151V16zm471 287-55-35v58z"/><glyph unicode=")" d="M288 448h72v-16h-72zm-136-64h208v-16H152zm0-64h208v-16H152zm280 192H80V343L0 309V0h512v309l-80 34zm-16-16V258L256 158 96 258v238zM80 268l-55 35 55 23zM16 16v274l240-151 240 151V16zm471 287-55-35v58z"/><glyph unicode="*" d="M360 512v-16h125L336 347c-36 33-84 53-136 53C90 400 0 310 0 200S90 0 200 0s200 90 200 200c0 52-20 100-53 136l149 149V360h16v144l-8 8zM200 16C99 16 16 99 16 200s83 184 184 184 184-83 184-184S301 16 200 16z"/><glyph unicode="+" d="M176 481 0 414V28l176 67 160-64 176 67v386l-176-67zm8-21 144-57V52l-144 57zM16 402l152 58V110L16 52zm480-292L344 52v350l152 58z"/><glyph unicode="," d="M0 128h136V23l123 105h253v352H0zm16 336h480V144H253L152 57v87H16z"/><glyph unicode="-" d="m104 19 107 93h237v320H0V112h104zM16 128v288h416V128H205l-85-74v74zm440 64v-16h56v320H64v-56h16v40h416V192z"/><glyph unicode="." d="M80 392h352v-16H80zm0-80h352v-16H80zm0-80h352v-16H80zm56-209 123 105h253v352H0V128h136zM16 144v320h480V144H253L152 57v87z"/><glyph unicode="/" d="M104 463v49H88v-49c-27-4-48-27-48-55s21-51 48-55V0h16v353c27 4 48 27 48 55s-21 51-48 55zm-8-95c-22 0-40 18-40 40s18 40 40 40 40-18 40-40-18-40-40-40zm328-209v353h-16V159c-27-4-48-27-48-55s21-51 48-55V0h16v49c27 4 48 27 48 55s-21 51-48 55zm-8-95c-22 0-40 18-40 40s18 40 40 40 40-18 40-40-18-40-40-40zM264 311v201h-16V311c-27-4-48-27-48-55s21-51 48-55V0h16v201c27 4 48 27 48 55s-21 51-48 55zm-8-95c-22 0-40 18-40 40s18 40 40 40 40-18 40-40-18-40-40-40z"/><glyph unicode=":" d="M256 512c-75 0-136-61-136-136V136C120 61 181 0 256 0s136 61 136 136v240c0 75-61 136-136 136zm-8-16V352H136v24c0 63 50 115 112 120zm8-480c-66 0-120 54-120 120v200h240V136c0-66-54-120-120-120zm120 336H264v144c62-5 112-57 112-120z"/><glyph unicode=";" d="M432 0v512H80v-56H56v-16h24v-48H56v-16h24v-48H56v-16h24v-48H56v-16h24v-48H56v-16h24v-48H56v-16h24V72H56V56h24V0zm-16 16h-80v480h80zM96 120h24v16H96v48h24v16H96v48h24v16H96v48h24v16H96v48h24v16H96v48h24v16H96v40h224V16H96v40h24v16H96z"/><glyph unicode="&lt;" d="M432 464h-32v-88h16v72h16V86l40-80 40 80v410h-80zm16 16h48V90l-24-48-24 48zM24 16h336v480H24v-40H0v-16h24v-48H0v-16h24v-48H0v-16h24v-48H0v-16h24v-48H0v-16h24v-48H0v-16h24V72H0V56h24zm320 16h-64v448h64zM40 120h24v16H40v48h24v16H40v48h24v16H40v48h24v16H40v48h24v16H40v48h24v16H40v24h224V32H40v24h24v16H40z"/><glyph unicode="=" d="M24 16h336v480H24v-40H0v-16h24v-48H0v-16h24v-48H0v-16h24v-48H0v-16h24v-48H0v-16h24v-48H0v-16h24V72H0V56h24zm320 16h-64v448h64zM40 120h24v16H40v48h24v16H40v48h24v16H40v48h24v16H40v48h24v16H40v48h24v16H40v24h224V32H40v24h24v16H40zm392-42 40-80 40 80v434h-80zm40-44-24 48v334h48V82zm24 462v-64h-48v64z"/><glyph unicode="&gt;" d="m5 279-1-14 174-87L265 4l14 1 232 496-6 4-4 6zm461 198L182 194 26 272zM272 26l-78 156 283 284z"/><glyph unicode="?" d="M0 0h515L0 515zm16 72h48v16H16v48h32v16H16v48h48v16H16v48h32v16H16v48h48v16H16v133L477 16H16zm88 219V72h219zm16-38L285 88H120zm395-112-20 79-295 295-59-59 295-295zm-22 22-49 12-233 233 37 37 233-233zM200 493l37-37-37-37-37 37z"/><glyph unicode="@" d="M312 0v512H168V0zM184 496h112v-72h-48v-16h48v-64h-16v-16h16v-64h-48v-16h48v-64h-16v-16h16v-64h-48V88h48V16H184zm-48-62-40 80-40-80V0h80zm-40 44 24-48V96H72v334zM72 16v64h48V16zM416 6l40 80v410h-80v-32h-32v-88h16v72h16V86zm-24 474h48V90l-24-48-24 48z"/><glyph unicode="[" d="M308 440H204l-64-80H0V88h512v272H372zM16 344h48V104H16zm480-240H80v240h68l64 80h88l64-80h132zM256 296c-40 0-72-32-72-72s32-72 72-72 72 32 72 72-32 72-72 72zm0-128c-31 0-56 25-56 56s25 56 56 56 56-25 56-56-25-56-56-56z"/><glyph unicode="]" d="M0 80h512v352H0zm16 16v36l176 153 97-97 48 64 159-136V96zm480 320V137L335 276l-48-64-95 95L16 154v262zm-88-128c26 0 48 22 48 48s-22 48-48 48-48-22-48-48 22-48 48-48zm0 80c18 0 32-14 32-32s-14-32-32-32-32 14-32 32 14 32 32 32z"/><glyph unicode="^" d="M432 392H0V56h432zm-16-16V97l-103 89-79-48-114 130L16 163v213zM16 72v69l104 103 110-126 81 48 105-90v-4zm56 328h16v40h408V136h-56v-16h72v336H72zm248-168c26 0 48 22 48 48s-22 48-48 48-48-22-48-48 22-48 48-48zm0 80c18 0 32-14 32-32s-14-32-32-32-32 14-32 32 14 32 32 32z"/><glyph unicode="_" d="M256 471c-48 0-87-39-87-87h16c0 39 32 71 71 71zm8-471v256c67 5 120 60 120 128 0 71-57 128-128 128s-128-57-128-128c0-68 53-123 120-128V0zM144 384c0 62 50 112 112 112s112-50 112-112-50-112-112-112-112 50-112 112z"/><glyph unicode="`" d="m121 278-10-62h137V0h16v216h137l-10 62-72 31-15 128 40 31v44H168v-44l40-31-15-128zm103 165-40 33v20h144v-20l-40-33 17-144 72-33 6-34H129l6 34 72 33z"/><glyph unicode="{" d="M512 416H0V72h512zM496 88H16v312h480zm-32 280h-80v-96h80zm-16-80h-48v64h48zm-144 80h16V120h-16zM48 352h224v-16H48zm0-48h192v-16H48zm0-48h208v-16H48z"/><glyph unicode="|" d="M440 360H0V72h440zM424 88H16v256h408zM88 416h408V160h-40v-16h56v288H72v-56h16zm312-96h-72v-80h72zm-16-64h-40v48h40zm-128 64h16V112h-16zM40 304h192v-16H40zm0-40h168v-16H40zm0-40h176v-16H40z"/><glyph unicode="}" d="M392 512H120V360H0V88h120V0h272v88h120v272H392zm-256-16h240V360H136zM376 16H136v176h240zm120 328V104H392v104H120V104H16v240zM48 304h32v-16H48zm48 0h32v-16H96zm80-160h160v-16H176zm0-64h160V64H176z"/><glyph unicode="~" d="M256 512c-68 0-133-27-181-75S0 324 0 256 27 123 75 75 188 0 256 0s133 27 181 75 75 113 75 181-27 133-75 181-113 75-181 75zM426 86c-46-45-106-70-170-70S132 41 86 86c-45 46-70 106-70 170s25 124 70 170c46 45 106 70 170 70s124-25 170-70c45-46 70-106 70-170s-25-124-70-170zm-194 82h16v-32h-16zm24 224c-48 0-72-16-72-48h16c0 15 6 32 56 32 34 0 56-19 56-48 0-22-31-43-44-49-1-1-36-19-36-71v-8h16v8c0 42 26 56 28 57s52 26 52 63c0 38-30 64-72 64z"/><glyph unicode="\" d="M64 512v-16c128 0 249-57 332-155 65-78 100-176 100-277h16c0 105-37 207-104 287-85 102-208 161-344 161zM406 64h16c0 197-158 358-358 358v-16c192 0 342-154 342-342zM64 331v-16c136 0 252-112 252-251h16c0 147-124 267-268 267zM242 64c0 98-82 177-178 177v-16c88 0 162-72 162-161zm-113 0c0 36-29 64-65 64-35 0-64-28-64-64S29 0 64 0c36 0 65 28 65 64zM16 64c0 27 22 48 48 48 27 0 49-21 49-48S91 16 64 16c-26 0-48 21-48 48z"/><glyph unicode="" d="M431 512H81L33 192h-1V0h448v192h-1zM95 496h322l46-304H49zM464 16H48v160h416zm-80 48c18 0 32 14 32 32s-14 32-32 32-32-14-32-32 14-32 32-32zm0 48c9 0 16-7 16-16s-7-16-16-16-16 7-16 16 7 16 16 16z"/><glyph unicode="" d="M264 512c-107 0-216-22-216-64V64C48 22 157 0 264 0s216 22 216 64v384c0 42-109 64-216 64zm0-496C140 16 64 44 64 64v102c34-25 117-38 200-38s166 13 200 38V64c0-20-76-48-200-48zm0 128c-124 0-200 28-200 48v102c34-25 117-38 200-38s166 13 200 38V192c0-20-76-48-200-48zm0 128c-124 0-200 28-200 48v102c34-25 117-38 200-38s166 13 200 38V320c0-20-76-48-200-48zm0 128c-124 0-200 28-200 48s76 48 200 48 200-28 200-48-76-48-200-48z"/><glyph unicode="" d="M431 512H81L33 192h-1V0h448v192h-1zM95 496h322l46-304H49zM464 16H48v160h416zm-80 48c18 0 32 14 32 32s-14 32-32 32-32-14-32-32 14-32 32-32zm0 48c9 0 16-7 16-16s-7-16-16-16-16 7-16 16 7 16 16 16zm-64 239c-4 28-30 49-64 49-30 0-55-24-62-49-17-3-26-21-26-31 0-20 12-32 32-32h112c20 0 32 12 32 32 0 10-8 27-24 31zm-8-47H200c-12 0-16 4-16 16 0 4 5 16 16 16h7l1 6c4 20 25 42 48 42s48-14 48-40v-8h8c11 0 16-12 16-16 0-11-5-16-16-16z"/><glyph unicode="" d="M431 512H81L33 192h-1V0h448v192h-1zM95 496h322l46-304H49zM464 16H48v160h416zm-80 48c18 0 32 14 32 32s-14 32-32 32-32-14-32-32 14-32 32-32zm0 48c9 0 16-7 16-16s-7-16-16-16-16 7-16 16 7 16 16 16zM264 283v141h-16V283l-50 51-12-13 64-65h12l64 65-12 12z"/><glyph unicode="" d="M431 512H81L33 192h-1V0h448v192h-1zM95 496h322l46-304H49zM464 16H48v160h416zm-80 48c18 0 32 14 32 32s-14 32-32 32-32-14-32-32 14-32 32-32zm0 48c9 0 16-7 16-16s-7-16-16-16-16 7-16 16 7 16 16 16zM250 424l-64-65 12-12 50 50V256h16v141l50-51 12 13-64 65z"/><glyph unicode="" d="m328 211-33 34 60 59h29c40 0 88 19 88 108v13l-70-33-25 25 31 71h-12c-89 0-108-48-108-88v-29l-60-60-97 97 26 26-94 56-25-25 56-94 26 26 97-98L22 102l-1-2L5 46l24-23 55 14 199 196 34-33-24-24L456 13l59 59-163 163zM58 463l7 7 66-40-33-33zM75 51 33 41l-10 9 12 42 269 273v35c0 45 26 68 80 71l-25-58 39-41 58 27c-4-52-28-79-72-79h-35zm381-16L315 176l37 37L493 72z"/><glyph unicode="" d="M408 512c-57 0-104-47-104-104 0-22 7-42 18-58L149 239c-16 16-37 25-61 25-49 0-88-39-88-88s39-88 88-88c33 0 62 18 77 45l147-58v-3c0-40 32-72 72-72s72 32 72 72-32 72-72 72c-33 0-61-23-69-53l-144 57c3 9 5 18 5 28 0 19-6 37-17 51l173 110c19-20 46-33 76-33 57 0 104 47 104 104s-47 104-104 104zm-24-384c31 0 56-25 56-56s-25-56-56-56-56 25-56 56 25 56 56 56zM88 104c-40 0-72 32-72 72s32 72 72 72 72-32 72-72-32-72-72-72zm320 216c-49 0-88 39-88 88s39 88 88 88 88-39 88-88-39-88-88-88z"/><glyph unicode="" d="M64 395V0h384v512H181zm112 90v-85H91zM432 16H80v368h112v112h240z"/><glyph unicode="" d="M56 347V0h328v448H157zm96 74v-69H83zM368 16H72v320h96v96h200zm24 64V64h64v448H229l-43-42 12-12 37 38h205V80z"/><glyph unicode="" d="M512 496h-80v-32h-32v-88h16v72h16V86l40-80 40 80zM496 90l-24-48-24 48v390h48zM344 395 243 496H0V16h344zm-96 74 69-69h-69zM16 32v448h216v-96h96V32zm48 384h96v-16H64zm0-80h216v-16H64zm0-64h216v-16H64zm0-64h216v-16H64zm0-64h216v-16H64z"/><glyph unicode="" d="M344 395 243 496H0V16h344zm-96 74 69-69h-69zM16 32v448h216v-96h96V32zm496 480h-80V78l40-80 40 80zm-16-16v-64h-48v64zM472 34l-24 48v334h48V82zM64 416h96v-16H64zm0-80h216v-16H64zm0-64h216v-16H64zm0-64h216v-16H64zm0-64h216v-16H64z"/><glyph unicode="" d="M64 0h384v512H181L64 395zm368 16H80v368h112v112h240zM91 400l85 85v-85zm165 8h112v-16H256zm-112-80h224v-16H144zm0-80h224v-16H144zm0-80h224v-16H144zm0-80h224V72H144z"/><glyph unicode="" d="M248 184V16h-56V0h128v16h-56v168h80v112h-80v16h179l65 56-65 56H264v32h-16v-32h-80V312h80v-16H69L4 240l65-56zm-64 224h253l47-40-47-40H184zM75 280h253v-80H75l-47 40z"/><glyph unicode="" d="M120 0h272v512H120zm16 16v80h240V16zm0 96v320h240V112zm240 384v-48H136v48zm-152-16h64v-16h-64zm32-400c-13 0-24-11-24-24s11-24 24-24 24 11 24 24-11 24-24 24zm0-32c-4 0-8 4-8 8s4 8 8 8 8-4 8-8-4-8-8-8z"/><glyph unicode="" d="M16 224c0-68 60-128 128-128 38 0 70 20 88 54-2-43-12-134-48-134V0h144v16c-36 0-46 89-48 133 20-32 55-53 96-53 74 0 120 66 120 128 0 64-40 132-119 202-58 51-116 85-117 85l-4 2-4-2c-1 0-59-34-117-85C56 356 16 288 16 224zm240 271c30-18 224-140 224-271 0-54-40-112-104-112-55 0-96 41-96 96h-16v-48c0-13 1-106 33-144h-82c32 38 33 131 33 144v48l-16 1c-4-48-33-97-88-97-60 0-112 52-112 112 0 131 194 253 224 271z"/><glyph unicode="" d="M0 473V73l256-33 256 33v400l-256-33zm16-18 232-30V57L16 87zM496 87 264 57v368l232 30z"/><glyph unicode="" d="M512 73v400l-256-33L0 473V73l256-33zm-16 14L264 57v368l72 9V283l40 20 40-20v162l80 10zM352 436l48 7V309l-24 12-24-12zM16 455l232-30V57L16 87z"/><glyph unicode="" d="M0 473V73l256-33 256 33v400l-256-33zm16-18 232-30V57L16 87zM496 87 264 57v368l232 30zM57 392l152-16-2-16-152 16zm150-112L55 296l2 16 152-16zm0-80L55 216l2 16 152-16zm0-80L55 136l2 16 152-16zm248 272 2-16-152-16-2 16zm0-80 2-16-152-16-2 16zm0-80 2-16-152-16-2 16zM305 120l-2 16 152 16 2-16z"/><glyph unicode="" d="M0 473V73l256-33 256 33v400l-256-33zm16-18 232-30V57L16 87zM496 87 264 57v368l72 9V283l40 20 40-20v162l80 10zM352 436l48 7V309l-24 12-24-12zM57 392l152-16-2-16-152 16zm150-112L55 296l2 16 152-16zm0-80L55 216l2 16 152-16zm0-80L55 136l2 16 152-16zm98 80-2 16 152 16 2-16zm0-80-2 16 152 16 2-16z"/><glyph unicode="" d="m256 528-70-200H-7l158-123L80-6l176 132L432-6l-71 211 158 123H326zm87-317 57-173-144 108L112 38l57 173L39 312h159l58 168 58-168h159z"/><glyph unicode="" d="M432 512H80V0h352zm-16-16v-48H96v48zm0-64V112H96v320zM96 16v80h320V16zm128 464h64v-16h-64zm32-400c-13 0-24-11-24-24s11-24 24-24 24 11 24 24-11 24-24 24zm0-32c-4 0-8 4-8 8s4 8 8 8 8-4 8-8-4-8-8-8z"/><glyph unicode="" d="M256 512c-68 0-133-27-181-75S0 324 0 256 27 123 75 75 188 0 256 0s133 27 181 75 75 113 75 181-27 133-75 181-113 75-181 75zM426 86c-46-45-106-70-170-70S132 41 86 86c-45 46-70 106-70 170s25 124 70 170c46 45 106 70 170 70s124-25 170-70c45-46 70-106 70-170s-25-124-70-170zM256 448c-51 0-100-20-136-56s-56-85-56-136 20-100 56-136 85-56 136-56 100 20 136 56 56 85 56 136-20 100-56 136-85 56-136 56zm124-316c-33-34-77-52-124-52s-91 18-124 52c-34 33-52 77-52 124s18 91 52 124c33 34 77 52 124 52s91-18 124-52c34-33 52-77 52-124s-18-91-52-124zM256 384c-34 0-66-13-91-37-24-25-37-57-37-91s13-66 37-91c25-24 57-37 91-37s66 13 91 37c24 25 37 57 37 91s-13 66-37 91c-25 24-57 37-91 37zm79-207c-21-21-49-33-79-33s-58 12-79 33-33 49-33 79 12 58 33 79 49 33 79 33 58-12 79-33 33-49 33-79-12-58-33-79zm-79 143c-17 0-33-7-45-19s-19-28-19-45 7-33 19-45 28-19 45-19 33 7 45 19 19 28 19 45-7 33-19 45-28 19-45 19zm34-98c-9-9-21-14-34-14s-25 5-34 14-14 21-14 34 5 25 14 34 21 14 34 14 25-5 34-14 14-21 14-34-5-25-14-34z"/><glyph unicode="" d="M440 456H332l-6 24h-30v32h-80v-32h-30l-6-24H72V0h368zm-242 8h34v32h48v-32h34l12-48H186zM424 16H88v424h88l-10-40h180l-10 40h88z"/><glyph unicode="" d="m472 6 40 80v410h-80v-32h-32v-88h16v72h16V86zm-24 474h48V90l-24-48-24 48zm-80-24H260l-6 24h-30v32h-80v-32h-30l-6-24H0V0h368zm-242 8h34v32h48v-32h34l12-48H114zM352 16H16v424h88l-10-40h180l-10 40h88z"/><glyph unicode="" d="m432 78 40-80 40 80v434h-80zm40-44-24 48v334h48V82zm24 462v-64h-48v64zm-128-40H260l-6 24h-30v32h-80v-32h-30l-6-24H0V0h368zm-242 8h34v32h48v-32h34l12-48H114zM352 16H16v424h88l-10-40h180l-10 40h88z"/><glyph unicode="" d="M200 328h176v-16H200zm0-80h176v-16H200zm0-80h176v-16H200zm0-80h176V72H200zm-64 240h32v-16h-32zm0-80h32v-16h-32zm0-80h32v-16h-32zm0-80h32V72h-32zm80 424v-32h-30l-6-24H72V0h368v456H332l-6 24h-30v32zm130-112-10 40h88V16H88v424h88l-10-40zm-32 64 12-48H186l12 48h34v32h48v-32z"/><glyph unicode="" d="M128 328h176v-16H128zm0-80h176v-16H128zm0-80h176v-16H128zm0-80h176V72H128zM64 328h32v-16H64zm0-80h32v-16H64zm0-80h32v-16H64zm0-80h32V72H64zm304 368H260l-6 24h-30v32h-80v-32h-30l-6-24H0V0h368zm-242 8h34v32h48v-32h34l12-48H114zM352 16H16v424h88l-10-40h180l-10 40h88zm160 480h-80v-32h-32v-88h16v72h16V86l40-80 40 80zM496 90l-24-48-24 48v390h48z"/><glyph unicode="" d="M128 328h176v-16H128zm0-80h176v-16H128zm0-80h176v-16H128zm0-80h176V72H128zM64 328h32v-16H64zm0-80h32v-16H64zm0-80h32v-16H64zm0-80h32V72H64zm304 368H260l-6 24h-30v32h-80v-32h-30l-6-24H0V0h368zm-242 8h34v32h48v-32h34l12-48H114zM352 16H16v424h88l-10-40h180l-10 40h88zm160 62v434h-80V78l40-80zm-16 418v-64h-48v64zm-48-80h48V82l-24-48-24 48z"/><glyph unicode="" d="M104 0h304v432h24v16H320v64H192v-64H80v-16h24zm104 496h96v-48h-96zm184-64V16H120v416zm-192-80h16V80h-16zm96 0h16V80h-16z"/><glyph unicode="" d="M376 334 472 6l16 4-29 97 47 16-37 127-47-16-31 105-15-4v81h-19l-40 96H212l-33-41-73 1-16-56H72V0h304zm83-104 27-97-31-10-29 96zM220 496h87l33-80H206l-14 45zm-102-40 59-1 12-39h-82zM360 16H88v384h272zM168 336h16V64h-16zm96 0h16V64h-16z"/><glyph unicode="" d="M104 0h304v432h24v16H320v64H192v-64H80v-16h24zm104 496h96v-48h-96zm184-64V16H120v416zM248 144h16l-14-19 13-10 25 32v10l-25 32-13-10 14-19h-16c-32 0-56 34-56 64h-16c0-38 31-80 72-80zm14 125-14 19h16c32 0 56-34 56-64h16c0 38-31 80-72 80h-16l14 19-13 10-25-32v-10l25-32z"/><glyph unicode="" d="M104 0h304v432h24v16H320v64H192v-64H80v-16h24zm104 496h96v-48h-96zm184-64V16H120v416zM206 162l50 51 50-51 12 12-51 50 51 50-12 12-50-51-50 51-12-12 51-50-51-50z"/><glyph unicode="" d="M264 48v237l50-51 12 13-64 65h-12l-64-65 12-12 50 50V48zm-72 136H16v272h480V184H320v-16h192v304H0V168h192z"/><glyph unicode="" d="M224 403 112 515-3 400l112-112-32-32L336-3l179 179-259 259zm-205-3 93 93 101-101-93-93zM336 19 99 256l157 157 237-237zM122 330l-72 72 12 12 72-72zM98 450l12 12 72-72-12-12z"/><glyph unicode="" d="M376 360h-53l-64 64H48v-16h205l48-48H0V88h376v74l136-80v284l-136-80zm120-22V110l-136 80v-86H16v240h344v-86zM48 296h32v-16H48zm64 0h32v-16h-32zM48 136h160v96H48zm16 80h128v-64H64z"/><glyph unicode="" d="M424 256c0 56-28 105-70 136h6v120H152V392h6c-42-31-70-80-70-136s28-105 70-136h-6V0h208v120h-6c42 31 70 80 70 136zM168 496h176v-97c-26 16-56 25-88 25s-62-9-88-25zM344 16H168v97c26-16 56-25 88-25s62 9 88 25zm-88 88c-84 0-152 68-152 152s68 152 152 152 152-68 152-152-68-152-152-152zm8 248h-16V251l68-34 8 14-60 30z"/><glyph unicode="" d="M0 48h512v416H0zm16 16v320h480V64zm480 384v-48H16v48zM48 432h32v-16H48zm64 0h32v-16h-32zm64 0h32v-16h-32z"/><glyph unicode="" d="M0 48h512v416H0zm16 16v320h480V64zm480 384v-48H16v48zM48 432h32v-16H48zm64 0h32v-16h-32zm64 0h32v-16h-32zM48 320h216v-16H48zm0-64h216v-16H48zm0-64h216v-16H48zm248-16h168v144H296zm16 128h136V192H312z"/><glyph unicode="" d="M448 400H0V48h448zm-16-16v-48H16v48zM16 64v256h416V64zm64 352h16v32h400V120h-32v-16h48v360H80zm-32-48h32v-16H48zm64 0h32v-16h-32zm64 0h32v-16h-32z"/><glyph unicode="" d="M48 320h416v-16H48zm0-64h416v-16H48zm0-64h416v-16H48zm464 272H0V48h512zm-16-16v-48H16v48zM16 64v320h480V64zm32 368h32v-16H48zm64 0h32v-16h-32zm64 0h32v-16h-32z"/><glyph unicode="" d="M256 513c-69 0-133-27-182-75C26 389-1 325-1 256S26 123 74 75C123 26 187 0 256 0c142 0 257 115 257 256 0 69-27 133-75 182-49 48-113 75-182 75zm182-99c-7-10-26-31-64-48-22 63-57 106-79 128 50-8 95-31 131-68l12-12zM268 15h-4v153c40-1 71-7 95-16-28-81-81-129-91-137zM153 152c25 9 56 15 95 16V15h-4c-10 8-63 56-91 137zm91 345h4V344c-40 1-71 7-95 16 28 81 81 129 91 137zm115-137c-25-9-56-15-95-16v153h4c10-8 63-56 91-137zm-95-32c41 1 74 7 100 16 7-24 11-51 12-80H264zm-16 0v-64H136c1 29 5 56 12 80 26-9 59-15 100-16zm-128-64H15c2 50 19 98 49 137 10-12 31-34 69-51-7-26-12-54-13-86zm0-16c1-32 6-60 13-86-38-17-59-39-69-51-30 39-47 87-49 137zm16 0h112v-64c-41-1-74-7-100-16-7 24-11 51-12 80zm128-64v64h112c-1-29-5-56-12-80-26 9-59 15-100 16zm128 64h105c-2-51-20-99-49-137-10 13-31 34-69 51 7 26 12 54 13 86zm0 16c-1 32-6 60-13 86 38 17 59 39 69 51 30-39 47-87 49-137H392zM217 494c-22-22-57-65-79-128-12 5-22 11-29 16-19 13-30 25-34 32 3 4 7 8 11 12 36 37 81 60 131 68zM74 98c7 10 26 31 64 48 22-63 57-106 79-128-50 8-95 31-131 68L74 98zM256 8V7zm39 10c22 22 57 65 79 128 12-5 22-11 29-16 19-13 30-25 34-32-36-42-86-70-142-80z"/></font>
</defs>
</svg>
